<?xml version="1.0" encoding="utf-8"?>
<!-- Generator: Adobe Illustrator 19.0.0, SVG Export Plug-In . SVG Version: 6.00 Build 0)  -->
<svg version="1.1" id="Layer_1" xmlns="http://www.w3.org/2000/svg" xmlns:xlink="http://www.w3.org/1999/xlink" x="0px" y="0px"
	 viewBox="-423.5 260 89.4 41.8" style="enable-background:new -423.5 260 89.4 41.8;" xml:space="preserve">
<style type="text/css">
	.st0{fill:#E44000;}
	.st1{stroke:#FFFFFF;stroke-width:5;stroke-linecap:round;stroke-linejoin:round;stroke-miterlimit:10;}
</style>
<g>
	<circle class="st0" cx="-402.6" cy="280.9" r="20.8"/>
</g>
<g>
	<path class="st1" d="M-376.4,271.7v5.5h-3.2l-0.2-2.3h-3.8v14.5l2.2,0.4v2.5h-8.5v-2.5l2.2-0.4v-14.5h-3.8l-0.2,2.3h-3.2v-5.5
		H-376.4z"/>
	<path class="st1" d="M-375,289.8l2.2-0.4v-14.8l-2.2-0.4v-2.5h8.4v2.5l-2.1,0.4v5.5h1.8l4-5.8l-1.2-0.2v-2.5h8.1v2.5l-2.2,0.4
		l-5.1,6.8l5.7,8.1l2.1,0.4v2.5h-8.2v-2.5l1.3-0.2l-4-5.9h-2.3v5.7l2.1,0.4v2.5h-8.4V289.8z"/>
	<path class="st1" d="M-345.1,271.7c2.5,0,4.6,0.8,6.2,2.4s2.4,3.7,2.4,6.2v3.4c0,2.5-0.8,4.6-2.4,6.2s-3.7,2.4-6.2,2.4h-9.3v-2.5
		l2.2-0.4v-14.8l-2.2-0.4v-2.5h2.2C-352.2,271.7-345.1,271.7-345.1,271.7z M-348,274.9v14.2h2.7c1.5,0,2.6-0.5,3.5-1.5
		c0.8-1,1.3-2.3,1.3-3.9v-3.4c0-1.6-0.4-2.9-1.3-3.9c-0.8-1-2-1.5-3.5-1.5C-345.3,274.9-348,274.9-348,274.9z"/>
</g>
<g>
	<path d="M-376.4,271.7v5.5h-3.2l-0.2-2.3h-3.8v14.5l2.2,0.4v2.5h-8.5v-2.5l2.2-0.4v-14.5h-3.8l-0.2,2.3h-3.2v-5.5H-376.4z"/>
	<path d="M-375,289.8l2.2-0.4v-14.8l-2.2-0.4v-2.5h8.4v2.5l-2.1,0.4v5.5h1.8l4-5.8l-1.2-0.2v-2.5h8.1v2.5l-2.2,0.4l-5.1,6.8l5.7,8.1
		l2.1,0.4v2.5h-8.2v-2.5l1.3-0.2l-4-5.9h-2.3v5.7l2.1,0.4v2.5h-8.4V289.8z"/>
	<path d="M-345.1,271.7c2.5,0,4.6,0.8,6.2,2.4s2.4,3.7,2.4,6.2v3.4c0,2.5-0.8,4.6-2.4,6.2s-3.7,2.4-6.2,2.4h-9.3v-2.5l2.2-0.4v-14.8
		l-2.2-0.4v-2.5h2.2C-352.2,271.7-345.1,271.7-345.1,271.7z M-348,274.9v14.2h2.7c1.5,0,2.6-0.5,3.5-1.5c0.8-1,1.3-2.3,1.3-3.9v-3.4
		c0-1.6-0.4-2.9-1.3-3.9c-0.8-1-2-1.5-3.5-1.5C-345.3,274.9-348,274.9-348,274.9z"/>
</g>
</svg>
